<?xml version="1.0" standalone="no"?>
<!DOCTYPE svg PUBLIC "-//W3C//DTD SVG 20010904//EN"
 "http://www.w3.org/TR/2001/REC-SVG-20010904/DTD/svg10.dtd">
<svg version="1.0" xmlns="http://www.w3.org/2000/svg"
 width="360.000000pt" height="269.000000pt" viewBox="0 0 360.000000 269.000000"
 preserveAspectRatio="xMidYMid meet">

<g transform="translate(0.000000,269.000000) scale(0.100000,-0.100000)"
fill="#000000" stroke="none">
<path d="M1000 1630 l0 -790 -225 0 c-143 0 -225 -4 -225 -10 0 -6 82 -10 225
-10 l225 0 0 -220 c0 -140 4 -220 10 -220 6 0 10 80 10 220 l0 220 945 0 c623
0 945 3 945 10 0 7 -322 10 -945 10 l-945 0 0 790 c0 520 -3 790 -10 790 -7 0
-10 -270 -10 -790z"/>
<path d="M720 2307 c0 -2 11 -32 25 -66 26 -63 26 -81 -1 -81 -8 0 -14 -7 -14
-16 0 -11 8 -14 33 -12 30 3 34 8 64 83 39 95 39 97 11 93 -14 -2 -25 -15 -33
-38 l-13 -35 -11 28 c-6 16 -11 33 -11 38 0 5 -11 9 -25 9 -14 0 -25 -1 -25
-3z"/>
<path d="M1825 1406 c-83 -67 -129 -116 -208 -225 -26 -35 -47 -59 -47 -55 0
28 53 201 75 243 13 28 21 52 16 55 -21 13 -141 36 -189 36 -91 0 -143 -35
-157 -106 l-5 -29 11 30 c17 44 48 74 85 81 34 6 144 -9 190 -26 l25 -10 -43
-62 c-58 -85 -183 -210 -238 -239 -33 -17 -62 -23 -108 -23 -58 -1 -66 2 -88
27 -29 34 -33 101 -7 129 18 20 6 24 -18 5 -59 -45 -47 -149 21 -177 43 -18
136 -8 192 19 67 34 138 100 209 194 34 45 59 75 56 67 -22 -55 -58 -184 -65
-232 -10 -66 5 -79 34 -30 67 109 115 174 181 243 42 44 77 78 79 77 1 -2 -13
-35 -32 -74 -41 -82 -62 -185 -48 -235 12 -44 50 -51 86 -17 13 13 19 20 14
16 -6 -5 -20 -8 -33 -8 -17 0 -23 7 -29 35 -15 80 23 201 92 295 24 33 40 60
36 60 -4 0 -44 -29 -87 -64z"/>
<path d="M2029 1398 c-73 -93 -109 -210 -91 -303 6 -29 10 -39 11 -24 2 54 14
89 29 89 8 0 30 10 49 21 l34 21 65 -68 c45 -47 68 -64 75 -57 8 8 -5 30 -40
74 -55 68 -59 80 -36 99 9 7 15 23 13 34 -3 18 -9 21 -40 18 -29 -2 -38 1 -38
13 0 8 -7 15 -15 15 -11 0 -15 -11 -15 -38 0 -31 -6 -43 -30 -60 -36 -27 -36
-21 -10 59 22 64 41 100 74 137 11 12 17 22 13 22 -4 0 -25 -24 -48 -52z"/>
<path d="M2378 1325 c-8 -119 -35 -213 -83 -287 l-35 -53 35 40 c63 72 98 156
103 248 2 45 0 98 -5 117 -8 30 -10 21 -15 -65z"/>
<path d="M1951 1024 c0 -11 3 -14 6 -6 3 7 2 16 -1 19 -3 4 -6 -2 -5 -13z"/>
<path d="M3049 847 l20 -33 -21 -32 -20 -32 26 0 c14 0 30 8 36 18 10 16 10
16 20 0 6 -10 22 -18 36 -18 l26 0 -21 33 -20 33 21 32 20 32 -26 0 c-14 0
-30 -8 -36 -17 -10 -17 -10 -17 -20 0 -6 9 -22 17 -36 17 l-26 0 21 -33z"/>
<path d="M756 744 c-31 -30 -33 -107 -5 -141 15 -18 64 -17 83 3 24 23 21 109
-4 134 -24 24 -53 26 -74 4z m50 -49 c8 -31 -3 -78 -16 -70 -13 8 -13 95 0 95
5 0 12 -11 16 -25z"/>
</g>
</svg>
